<?xml version="1.0" encoding="UTF-8" standalone="no"?>
<!DOCTYPE svg PUBLIC "-//W3C//DTD SVG 1.1//EN"
 "http://www.w3.org/Graphics/SVG/1.1/DTD/svg11.dtd">
<!-- Generated by graphviz version 2.43.0 (0)
 -->
<!-- Title: %3 Pages: 1 -->
<svg width="821pt" height="100pt"
 viewBox="0.00 0.00 821.00 100.00" xmlns="http://www.w3.org/2000/svg" xmlns:xlink="http://www.w3.org/1999/xlink">
<g id="graph0" class="graph" transform="scale(1 1) rotate(0) translate(4 96)">
<title>%3</title>
<polygon fill="white" stroke="transparent" points="-4,4 -4,-96 817,-96 817,4 -4,4"/>
<!-- 135683301694608 -->
<g id="node1" class="node">
<title>135683301694608</title>
<polygon fill="none" stroke="black" points="0,-55.5 0,-91.5 187,-91.5 187,-55.5 0,-55.5"/>
<text text-anchor="middle" x="10" y="-69.8" font-family="Times,serif" font-size="14.00"> </text>
<polyline fill="none" stroke="black" points="20,-55.5 20,-91.5 "/>
<text text-anchor="middle" x="62.5" y="-69.8" font-family="Times,serif" font-size="14.00">data &#45;2.0000</text>
<polyline fill="none" stroke="black" points="105,-55.5 105,-91.5 "/>
<text text-anchor="middle" x="146" y="-69.8" font-family="Times,serif" font-size="14.00">grad 0.0000</text>
</g>
<!-- 135683301700896* -->
<g id="node3" class="node">
<title>135683301700896*</title>
<ellipse fill="none" stroke="black" cx="250" cy="-45.5" rx="27" ry="18"/>
<text text-anchor="middle" x="250" y="-41.8" font-family="Times,serif" font-size="14.00">*</text>
</g>
<!-- 135683301694608&#45;&gt;135683301700896* -->
<g id="edge5" class="edge">
<title>135683301694608&#45;&gt;135683301700896*</title>
<path fill="none" stroke="black" d="M187.05,-56.73C196.54,-55.01 205.71,-53.35 213.95,-51.85"/>
<polygon fill="black" stroke="black" points="214.64,-55.28 223.85,-50.06 213.39,-48.4 214.64,-55.28"/>
</g>
<!-- 135683301700896 -->
<g id="node2" class="node">
<title>135683301700896</title>
<polygon fill="none" stroke="black" points="313,-27.5 313,-63.5 500,-63.5 500,-27.5 313,-27.5"/>
<text text-anchor="middle" x="323" y="-41.8" font-family="Times,serif" font-size="14.00"> </text>
<polyline fill="none" stroke="black" points="333,-27.5 333,-63.5 "/>
<text text-anchor="middle" x="375.5" y="-41.8" font-family="Times,serif" font-size="14.00">data &#45;6.0000</text>
<polyline fill="none" stroke="black" points="418,-27.5 418,-63.5 "/>
<text text-anchor="middle" x="459" y="-41.8" font-family="Times,serif" font-size="14.00">grad 0.0000</text>
</g>
<!-- 135683301692592tanh -->
<g id="node5" class="node">
<title>135683301692592tanh</title>
<ellipse fill="none" stroke="black" cx="563" cy="-45.5" rx="27" ry="18"/>
<text text-anchor="middle" x="563" y="-41.8" font-family="Times,serif" font-size="14.00">tanh</text>
</g>
<!-- 135683301700896&#45;&gt;135683301692592tanh -->
<g id="edge3" class="edge">
<title>135683301700896&#45;&gt;135683301692592tanh</title>
<path fill="none" stroke="black" d="M500.05,-45.5C509.06,-45.5 517.79,-45.5 525.7,-45.5"/>
<polygon fill="black" stroke="black" points="525.95,-49 535.95,-45.5 525.95,-42 525.95,-49"/>
</g>
<!-- 135683301700896*&#45;&gt;135683301700896 -->
<g id="edge1" class="edge">
<title>135683301700896*&#45;&gt;135683301700896</title>
<path fill="none" stroke="black" d="M277.21,-45.5C284.73,-45.5 293.43,-45.5 302.67,-45.5"/>
<polygon fill="black" stroke="black" points="302.89,-49 312.89,-45.5 302.89,-42 302.89,-49"/>
</g>
<!-- 135683301692592 -->
<g id="node4" class="node">
<title>135683301692592</title>
<polygon fill="none" stroke="black" points="626,-27.5 626,-63.5 813,-63.5 813,-27.5 626,-27.5"/>
<text text-anchor="middle" x="636" y="-41.8" font-family="Times,serif" font-size="14.00"> </text>
<polyline fill="none" stroke="black" points="646,-27.5 646,-63.5 "/>
<text text-anchor="middle" x="688.5" y="-41.8" font-family="Times,serif" font-size="14.00">data &#45;1.0000</text>
<polyline fill="none" stroke="black" points="731,-27.5 731,-63.5 "/>
<text text-anchor="middle" x="772" y="-41.8" font-family="Times,serif" font-size="14.00">grad 0.0000</text>
</g>
<!-- 135683301692592tanh&#45;&gt;135683301692592 -->
<g id="edge2" class="edge">
<title>135683301692592tanh&#45;&gt;135683301692592</title>
<path fill="none" stroke="black" d="M590.21,-45.5C597.73,-45.5 606.43,-45.5 615.67,-45.5"/>
<polygon fill="black" stroke="black" points="615.89,-49 625.89,-45.5 615.89,-42 615.89,-49"/>
</g>
<!-- 135683301691680 -->
<g id="node6" class="node">
<title>135683301691680</title>
<polygon fill="none" stroke="black" points="2.5,-0.5 2.5,-36.5 184.5,-36.5 184.5,-0.5 2.5,-0.5"/>
<text text-anchor="middle" x="12.5" y="-14.8" font-family="Times,serif" font-size="14.00"> </text>
<polyline fill="none" stroke="black" points="22.5,-0.5 22.5,-36.5 "/>
<text text-anchor="middle" x="62.5" y="-14.8" font-family="Times,serif" font-size="14.00">data 3.0000</text>
<polyline fill="none" stroke="black" points="102.5,-0.5 102.5,-36.5 "/>
<text text-anchor="middle" x="143.5" y="-14.8" font-family="Times,serif" font-size="14.00">grad 0.0000</text>
</g>
<!-- 135683301691680&#45;&gt;135683301700896* -->
<g id="edge4" class="edge">
<title>135683301691680&#45;&gt;135683301700896*</title>
<path fill="none" stroke="black" d="M184.82,-34.28C195.07,-36.08 205.01,-37.81 213.88,-39.36"/>
<polygon fill="black" stroke="black" points="213.3,-42.81 223.75,-41.09 214.5,-35.92 213.3,-42.81"/>
</g>
</g>
</svg>
